<mxfile host="app.diagrams.net" modified="2020-09-29T22:43:18.290Z" agent="5.0 (Windows NT 10.0; Win64; x64) AppleWebKit/537.36 (KHTML, like Gecko) Chrome/85.0.4183.102 Safari/537.36" etag="ylx1b5UdTrJ769G3qOXh" version="13.7.6" type="github">
  <diagram id="7yYZdOkWChWm2LuPb8xk" name="Page-1">
    <mxGraphModel dx="1360" dy="1902" grid="1" gridSize="10" guides="1" tooltips="1" connect="1" arrows="1" fold="1" page="1" pageScale="1" pageWidth="850" pageHeight="1100" math="0" shadow="0">
      <root>
        <mxCell id="0" />
        <mxCell id="1" parent="0" />
        <mxCell id="fvyGiGo3PBGExjdBEIiE-2" value="Start" style="ellipse;whiteSpace=wrap;html=1;" vertex="1" parent="1">
          <mxGeometry x="365" y="-1060" width="120" height="80" as="geometry" />
        </mxCell>
        <mxCell id="fvyGiGo3PBGExjdBEIiE-5" value="" style="endArrow=classic;html=1;exitX=0.5;exitY=1;exitDx=0;exitDy=0;entryX=0.5;entryY=0;entryDx=0;entryDy=0;" edge="1" parent="1" source="fvyGiGo3PBGExjdBEIiE-2" target="fvyGiGo3PBGExjdBEIiE-14">
          <mxGeometry width="50" height="50" relative="1" as="geometry">
            <mxPoint x="425" y="-980" as="sourcePoint" />
            <mxPoint x="425" y="-930" as="targetPoint" />
            <Array as="points" />
          </mxGeometry>
        </mxCell>
        <mxCell id="fvyGiGo3PBGExjdBEIiE-15" value="yes" style="edgeStyle=orthogonalEdgeStyle;rounded=0;orthogonalLoop=1;jettySize=auto;html=1;" edge="1" parent="1" source="fvyGiGo3PBGExjdBEIiE-14">
          <mxGeometry relative="1" as="geometry">
            <mxPoint x="540" y="-890" as="targetPoint" />
          </mxGeometry>
        </mxCell>
        <mxCell id="fvyGiGo3PBGExjdBEIiE-16" value="no" style="edgeStyle=orthogonalEdgeStyle;rounded=0;orthogonalLoop=1;jettySize=auto;html=1;" edge="1" parent="1" source="fvyGiGo3PBGExjdBEIiE-14">
          <mxGeometry relative="1" as="geometry">
            <mxPoint x="320" y="-890" as="targetPoint" />
          </mxGeometry>
        </mxCell>
        <mxCell id="fvyGiGo3PBGExjdBEIiE-14" value="Dress Up" style="rhombus;whiteSpace=wrap;html=1;" vertex="1" parent="1">
          <mxGeometry x="385" y="-930" width="80" height="80" as="geometry" />
        </mxCell>
        <mxCell id="fvyGiGo3PBGExjdBEIiE-19" value="get judged by people for not dressing up" style="rounded=0;whiteSpace=wrap;html=1;" vertex="1" parent="1">
          <mxGeometry x="200" y="-920" width="120" height="60" as="geometry" />
        </mxCell>
        <mxCell id="fvyGiGo3PBGExjdBEIiE-20" value="halloween!!!!" style="text;html=1;strokeColor=none;fillColor=none;align=center;verticalAlign=middle;whiteSpace=wrap;rounded=0;" vertex="1" parent="1">
          <mxGeometry x="10" y="-1070" width="125" height="20" as="geometry" />
        </mxCell>
        <mxCell id="fvyGiGo3PBGExjdBEIiE-23" value="yes" style="edgeStyle=orthogonalEdgeStyle;rounded=0;orthogonalLoop=1;jettySize=auto;html=1;" edge="1" parent="1" source="fvyGiGo3PBGExjdBEIiE-22">
          <mxGeometry relative="1" as="geometry">
            <mxPoint x="690" y="-890" as="targetPoint" />
          </mxGeometry>
        </mxCell>
        <mxCell id="fvyGiGo3PBGExjdBEIiE-24" value="no" style="edgeStyle=orthogonalEdgeStyle;rounded=0;orthogonalLoop=1;jettySize=auto;html=1;" edge="1" parent="1" source="fvyGiGo3PBGExjdBEIiE-22">
          <mxGeometry relative="1" as="geometry">
            <mxPoint x="580" y="-760" as="targetPoint" />
          </mxGeometry>
        </mxCell>
        <mxCell id="fvyGiGo3PBGExjdBEIiE-22" value="full costume?" style="rhombus;whiteSpace=wrap;html=1;" vertex="1" parent="1">
          <mxGeometry x="540" y="-930" width="80" height="80" as="geometry" />
        </mxCell>
        <mxCell id="fvyGiGo3PBGExjdBEIiE-25" value="" style="rounded=0;whiteSpace=wrap;html=1;" vertex="1" parent="1">
          <mxGeometry x="690" y="-920" width="120" height="60" as="geometry" />
        </mxCell>
      </root>
    </mxGraphModel>
  </diagram>
</mxfile>
